<svg width="14" height="16" viewBox="0 0 14 16" fill="none" xmlns="http://www.w3.org/2000/svg">
<path fill-rule="evenodd" clip-rule="evenodd" d="M9.32605 4C8.76518 4 8.39127 3.6 8.39127 3C8.39127 2.4 8.76518 2 9.32605 2H10.2608V1C10.2608 0.4 10.6348 0 11.1956 0C11.7565 0 12.1304 0.4 12.1304 1V2H13.0652C13.6261 2 14 2.4 14 3C14 3.6 13.6261 4 13.0652 4H12.1304V5C12.1304 5.6 11.7565 6 11.1956 6C10.6348 6 10.2608 5.6 10.2608 5V4H9.32605ZM13.4391 6.1C13.9065 6.4 14.0935 7 13.9065 7.4L12.9717 9.4C12.7848 9.8 12.5043 10 12.1304 10H3.71732C3.3434 10 2.96949 9.7 2.87601 9.4L0.0716429 1.4C-0.115315 0.8 0.0716429 0.3 0.539037 0.1C1.09991 -0.1 1.56731 0.1 1.75426 0.6L2.22166 2H6.52169C7.08256 2 7.45648 2.4 7.45648 3C7.45648 3.6 7.08256 4 6.52169 4H2.96949L4.37167 8H11.5695L12.2239 6.5C12.4109 6.1 12.9717 5.9 13.4391 6.1ZM2.78253 16C2.28669 16 1.81115 15.7893 1.46054 15.4142C1.10993 15.0391 0.912953 14.5304 0.912953 14C0.912953 13.4696 1.10993 12.9609 1.46054 12.5858C1.81115 12.2107 2.28669 12 2.78253 12C3.27837 12 3.75391 12.2107 4.10452 12.5858C4.45514 12.9609 4.65211 13.4696 4.65211 14C4.65211 14.5304 4.45514 15.0391 4.10452 15.4142C3.75391 15.7893 3.27837 16 2.78253 16ZM11.1956 16C10.6998 16 10.2243 15.7893 9.87364 15.4142C9.52303 15.0391 9.32605 14.5304 9.32605 14C9.32605 13.4696 9.52303 12.9609 9.87364 12.5858C10.2243 12.2107 10.6998 12 11.1956 12C11.6915 12 12.167 12.2107 12.5176 12.5858C12.8682 12.9609 13.0652 13.4696 13.0652 14C13.0652 14.5304 12.8682 15.0391 12.5176 15.4142C12.167 15.7893 11.6915 16 11.1956 16Z" fill="black"/>
</svg>
