<svg width="10" height="18" viewBox="0 0 10 18" fill="none" xmlns="http://www.w3.org/2000/svg">
<path d="M8.9919 7.07947C8.84998 6.84622 8.59676 6.71751 8.30751 6.71751H6.54259L8.99182 2.04809C9.128 1.78849 9.13289 1.50177 8.99305 1.26615L8.99299 1.26606C8.85261 1.0301 8.59898 0.9 8.30751 0.9H2.99411C2.51411 0.9 2.08295 1.27259 2.00626 1.74956L2.00624 1.74973L0.911749 8.6295C0.911747 8.62951 0.911744 8.62953 0.911741 8.62955C0.870422 8.88849 0.939105 9.14988 1.10384 9.34522C1.26832 9.54061 1.51288 9.65148 1.77347 9.65148H4.26085L3.46405 16.3166L3.46405 16.3167C3.44495 16.4775 3.43541 16.7173 3.60433 16.9104L3.60455 16.9106C3.70613 17.0259 3.86639 17.1 4.02072 17.1C4.20937 17.1 4.34637 17.0113 4.43918 16.9146C4.52979 16.8202 4.58246 16.714 4.60614 16.6663L4.6066 16.6653L4.60671 16.6651L9.00439 7.85823L9.00447 7.85807C9.1338 7.59787 9.13392 7.31213 8.9919 7.07947ZM8.9919 7.07947C8.9919 7.07948 8.9919 7.07948 8.9919 7.07949L8.90647 7.13146L8.99181 7.07934C8.99184 7.07939 8.99187 7.07943 8.9919 7.07947ZM6.0454 7.80076H7.8306L4.85048 13.7693L5.3523 9.57071L5.35231 9.57069C5.38292 9.31424 5.30629 9.05713 5.13943 8.86679C4.97255 8.67641 4.72902 8.56794 4.47198 8.56794H2.0092L3.05673 1.98354H7.81061L5.3611 6.65296L5.44965 6.69941L5.3611 6.65296C5.22495 6.91251 5.21999 7.19928 5.36021 7.43468C5.50032 7.6707 5.75399 7.80076 6.0454 7.80076Z" fill="black" stroke="black" stroke-width="0.2"/>
</svg>
